<?xml version="1.0" encoding="iso-8859-1"?>
<!-- Generator: Adobe Illustrator 19.0.0, SVG Export Plug-In . SVG Version: 6.00 Build 0)  -->
<svg version="1.1" id="Capa_1" xmlns="http://www.w3.org/2000/svg" xmlns:xlink="http://www.w3.org/1999/xlink" x="0px" y="0px"
	 viewBox="0 0 469.333 469.333" style="enable-background:new 0 0 469.333 469.333;" xml:space="preserve">
<path style="fill:#303C42;" d="M458.667,0H352c-5.896,0-10.667,4.771-10.667,10.667S346.104,21.333,352,21.333h80.917
	L301.595,152.655c-32.044-28.507-74.099-45.988-120.262-45.988C81.344,106.667,0,188.01,0,288s81.344,181.333,181.333,181.333
	S362.667,387.99,362.667,288c0-46.163-17.482-88.217-45.988-120.262L448,36.417v80.917c0,5.896,4.771,10.667,10.667,10.667
	c5.896,0,10.667-4.771,10.667-10.667V10.667C469.333,4.771,464.563,0,458.667,0z M181.333,448c-88.229,0-160-71.771-160-160
	s71.771-160,160-160s160,71.771,160,160S269.563,448,181.333,448z"/>
<linearGradient id="SVGID_1_" gradientUnits="userSpaceOnUse" x1="-64.2786" y1="618.4477" x2="-48.5099" y2="611.0928" gradientTransform="matrix(21.3333 0 0 -21.3333 1430.1112 13315.2227)">
	<stop  offset="0" style="stop-color:#FFFFFF;stop-opacity:0.2"/>
	<stop  offset="1" style="stop-color:#FFFFFF;stop-opacity:0"/>
</linearGradient>
<path style="fill:url(#SVGID_1_);" d="M458.667,0H352c-5.896,0-10.667,4.771-10.667,10.667S346.104,21.333,352,21.333h80.917
	L301.595,152.655c-32.044-28.507-74.099-45.988-120.262-45.988C81.344,106.667,0,188.01,0,288s81.344,181.333,181.333,181.333
	S362.667,387.99,362.667,288c0-46.163-17.482-88.217-45.988-120.262L448,36.417v80.917c0,5.896,4.771,10.667,10.667,10.667
	c5.896,0,10.667-4.771,10.667-10.667V10.667C469.333,4.771,464.563,0,458.667,0z M181.333,448c-88.229,0-160-71.771-160-160
	s71.771-160,160-160s160,71.771,160,160S269.563,448,181.333,448z"/>
<g>
</g>
<g>
</g>
<g>
</g>
<g>
</g>
<g>
</g>
<g>
</g>
<g>
</g>
<g>
</g>
<g>
</g>
<g>
</g>
<g>
</g>
<g>
</g>
<g>
</g>
<g>
</g>
<g>
</g>
</svg>
